<svg id="Layer_1" data-name="Layer 1" xmlns="http://www.w3.org/2000/svg" viewBox="0 0 15.1 924.44"><defs><style>.cls-1{fill:#ac1e20;}</style></defs><title>bm-dec-border</title><path class="cls-1" d="M13.41,928.22a6.39,6.39,0,0,0,.08-1.19l0.07-3.47,0.12-13.22,0.16-47.62,0.07-148.57-0.24-259c0.1-2.4,0-5.78,0-5.78v-6.29c0.12-6.62.39-11.79,0-13.3V66.61c0-.61,0-1.18.07-1.7,0.06-1.05.15-2,.27-2.74a17.56,17.56,0,0,1,1-3.84,63.71,63.71,0,0,0,3.35-9.43C21.08,38.67,19,37,19,37A10.09,10.09,0,0,0,17,35.79c-1.27-.84-2.75-1.9-2.91-3.18a2.5,2.5,0,0,1,1.24-2.22,9,9,0,0,1,1.44-.79c-3.33-3.51-6.54-1.48-6.54-1.48-1.06-1.77.55-5.24,0.55-5.24,3.7,2.29,5.08-.79,6.73-2.22a4.5,4.5,0,0,1,3.85-.84,5.51,5.51,0,0,0-5.9-2.1c1.4-4.15-3.94-6.92-6.21-9.4S8.37,3.78,8.37,3.78a3.48,3.48,0,0,0-1.65,5C8.43,12.48,11.17,14.07,8.17,23a10.05,10.05,0,0,0,2.9,11.34c-2.26.81-.74,2.26-0.16,3.45l0,0.08A5.34,5.34,0,0,1,11.3,39c2.53,2.18,2.69,5.45,2.62,8.13-0.06,2.12-.24,4.23-0.45,6.35-0.56,3.85-.93,7.64-1.15,10.46l-0.23,3.4L12,82.34V449.43h0l0.35,249.93,0.43,158,0.28,51.44,0.16,14.35,0.08,3.77A7.26,7.26,0,0,0,13.41,928.22Z" transform="translate(-6.23 -3.78)"/></svg>