<svg id="Layer_1" data-name="Layer 1" xmlns="http://www.w3.org/2000/svg" viewBox="0 0 1000 1000"><defs><style>.cls-1{fill:#a10104;}</style></defs><title>biblemunger-logo-1-noword</title><path class="cls-1" d="M491.57,0L480,146.88l91.06-78-45.41,287,82.18-72.39L503.64,592c31.62-31.74,264-247.84,496.35,3.76V0H491.57Z" transform="translate(0 0)"/><path class="cls-1" d="M497.6,419.73L441,466.58l12.08-251.82L367.56,283,377.64,0H0V595.76s248.94-269.52,498.41-1.69Z" transform="translate(0 0)"/><path class="cls-1" d="M1000,819.64V770.5c-250-266.53-500,0-500,0h0c-250-266.55-500,0-500,0v49.14H0V1000H1000V819.64h0Z" transform="translate(0 0)"/></svg>